<?xml version="1.0" encoding="UTF-8"?>
<svg version="1.1" xmlns="http://www.w3.org/2000/svg" width="256" height="256">
<path d="M0 0 C1.33838221 -0.02319972 2.67673211 -0.04833074 4.01504517 -0.07522583 C7.62270552 -0.14028311 11.22990348 -0.17295494 14.83805752 -0.19527912 C17.09999807 -0.21002075 19.36181694 -0.23055977 21.62369537 -0.25279999 C28.72396372 -0.32101765 35.8239482 -0.36943046 42.92452121 -0.38880944 C51.0796979 -0.41119972 59.23067814 -0.49891028 67.38457942 -0.64381242 C73.71709124 -0.75238321 80.04843061 -0.80235533 86.38186193 -0.80901504 C90.1520053 -0.81422145 93.91818909 -0.84296715 97.68733978 -0.9331131 C122.2961438 -1.48906789 122.2961438 -1.48906789 129.33215332 4.11096191 C132.44951165 7.1468397 134.98438016 10.42591026 137.31613922 14.09247589 C138.69377878 16.23261259 140.31216223 18.07065528 142.04394531 19.93066406 C142.55441406 20.52363281 143.06488281 21.11660156 143.59082031 21.72753906 C146.10963772 24.59081013 148.70222241 27.38343363 151.29394531 30.18066406 C155.04086108 34.22728626 158.77975037 38.27999526 162.48144531 42.36816406 C163.17367187 43.13257813 163.86589844 43.89699219 164.57910156 44.68457031 C165.18625 45.38453125 165.79339844 46.08449219 166.41894531 46.80566406 C166.94403498 47.35837164 167.46912464 47.91107922 168.01012611 48.48053551 C169.93400372 51.65572134 169.83485544 54.52599562 169.79989624 58.1288147 C169.80457621 58.86838327 169.80925618 59.60795184 169.81407797 60.36993158 C169.82604897 62.84950501 169.81656251 65.32852788 169.80712891 67.80810547 C169.81119389 69.58555423 169.81653536 71.36300046 169.82305908 73.14044189 C169.83675317 77.97136375 169.83142382 82.8020937 169.82192183 87.63301897 C169.81432898 92.69190522 169.82137046 97.75077498 169.82608032 102.80966187 C169.83154196 111.31210274 169.82433869 119.81446551 169.81005859 128.31689453 C169.79376278 138.13252633 169.7989966 147.94797089 169.81553781 157.76359808 C169.82917867 166.1969025 169.83105869 174.63015072 169.8232218 183.06346262 C169.81855551 188.09732844 169.81789101 193.13110648 169.82783127 198.16496658 C169.83653536 202.90429883 169.83041637 207.64339152 169.8131485 212.38269806 C169.80920063 214.11683379 169.81028838 215.85098986 169.81693649 217.58511734 C169.89495769 240.01529335 169.89495769 240.01529335 162.23144531 248.18066406 C161.51601562 248.97214844 160.80058594 249.76363281 160.06347656 250.57910156 C151.83344987 257.50837071 143.9678308 257.3870897 133.70654297 257.33911133 C132.11568911 257.3461769 130.52484198 257.35492459 128.93400574 257.36521912 C124.63011539 257.3876535 120.32659384 257.38478711 116.02266741 257.37589765 C112.42194277 257.37077388 108.82128659 257.3780917 105.22056901 257.38536972 C96.72152898 257.4023504 88.22266856 257.39882205 79.72363281 257.38208008 C70.97343479 257.36516552 62.2237359 257.38098817 53.4735924 257.41330296 C45.94463729 257.44004819 38.41583709 257.44726142 30.88683927 257.43878788 C26.39733322 257.4338724 21.90812726 257.43599899 17.41865921 257.45657539 C13.1945589 257.47500994 8.97117292 257.46887984 4.74711037 257.44437599 C3.20325255 257.43939235 1.65933957 257.44279387 0.1155262 257.45552444 C-10.21085418 257.53389416 -18.06202702 256.38703278 -26.20214844 249.62988281 C-26.8015625 248.92476562 -27.40097656 248.21964844 -28.01855469 247.49316406 C-28.63601562 246.79578125 -29.25347656 246.09839844 -29.88964844 245.37988281 C-34.03963686 239.06384963 -35.02439363 233.2223948 -34.96873474 225.85585022 C-34.97412028 224.98965181 -34.97950582 224.12345341 -34.98505455 223.23100656 C-34.99928929 220.3469724 -34.99224153 217.46340012 -34.98510742 214.5793457 C-34.99081332 212.50412122 -34.99777842 210.42889988 -35.00590515 208.35368347 C-35.02382697 202.72971995 -35.02267002 197.10591255 -35.01696277 191.48192906 C-35.01386964 186.78260885 -35.01996473 182.08331857 -35.02600151 177.38400263 C-35.04004182 166.2960968 -35.03848942 155.20826804 -35.02709961 144.12036133 C-35.01561756 132.69023979 -35.02969677 121.26035287 -35.05649608 109.83026224 C-35.07866253 100.00751948 -35.08528835 90.18485032 -35.07941967 80.36208433 C-35.07605134 74.4994151 -35.07845719 68.63689627 -35.0956707 62.77424812 C-35.11115277 57.2608425 -35.10717 51.74778413 -35.08836555 46.23439217 C-35.08468327 44.214407 -35.08777759 42.19439603 -35.09825134 40.17443466 C-35.11148755 37.41004572 -35.09989057 34.64680201 -35.08226013 31.88246155 C-35.09186514 31.08925304 -35.10147014 30.29604453 -35.11136621 29.4787994 C-35.00098758 21.02727054 -31.54759459 13.78545233 -25.69597244 7.73611069 C-18.1224153 0.82314786 -9.87760825 0.04479586 0 0 Z M-21.58105469 14.80566406 C-27.09475866 22.39947341 -27.73416584 29.80716792 -27.71476746 39.02780151 C-27.71703301 39.82780866 -27.71929857 40.6278158 -27.72163278 41.45206559 C-27.72793494 44.11796098 -27.72714586 46.78380504 -27.72631836 49.44970703 C-27.72931219 51.36714747 -27.73271523 53.28458731 -27.73649597 55.20202637 C-27.74531676 60.4004007 -27.74767326 65.59875856 -27.74831176 70.79713964 C-27.74902327 74.0471053 -27.75115951 77.29706678 -27.75380898 80.5470314 C-27.76305556 91.89122025 -27.76714466 103.23539735 -27.76635742 114.57958984 C-27.76575659 125.14450262 -27.77631119 135.70936435 -27.79210109 146.27426422 C-27.80518631 155.35387883 -27.81054091 164.43347677 -27.80990201 173.51310074 C-27.80964734 178.9319686 -27.8124815 184.35079106 -27.82308006 189.76964951 C-27.83277771 194.86681673 -27.83282877 199.96389529 -27.82556343 205.06106567 C-27.82451971 206.92785904 -27.82686781 208.79465797 -27.83292389 210.6614418 C-27.84067693 213.21758428 -27.83597728 215.77342307 -27.82829285 218.32955933 C-27.83343641 219.06119478 -27.83857997 219.79283024 -27.8438794 220.54663646 C-27.78233733 229.86531635 -25.81393631 237.68848344 -19.58105469 244.80566406 C-13.86274062 249.47026632 -7.42347373 249.9282686 -0.29470825 249.93937683 C0.94727325 249.94364182 2.18925476 249.9479068 3.46887207 249.95230103 C4.83227542 249.95195157 6.19567875 249.95149007 7.55908203 249.95092773 C9.00509731 249.95392224 10.4511118 249.95732544 11.89712524 249.96110535 C15.81454183 249.96991949 19.73193655 249.97228236 23.64936209 249.97292113 C26.09945622 249.97363305 28.54954484 249.97577005 30.9996376 249.97841835 C39.55461224 249.98766289 48.10957132 249.99175431 56.66455078 249.9909668 C64.62729101 249.9903661 72.58996348 250.00091871 80.55268657 250.01671046 C87.39958828 250.02980335 94.24646788 250.03514997 101.093382 250.03451139 C105.17811221 250.03425693 109.26278216 250.03707907 113.34749985 250.04768944 C117.1905145 250.0574 121.03341162 250.0574294 124.87643051 250.05017281 C126.28245211 250.04913067 127.68848115 250.05146773 129.09449005 250.05753326 C142.25534175 250.43809251 142.25534175 250.43809251 153.66894531 244.74316406 C154.29285156 244.2159375 154.91675781 243.68871094 155.55957031 243.14550781 C162.41323898 234.52082813 161.96937652 225.20295739 161.87304688 214.71948242 C161.87191722 212.99403917 161.87255457 211.268594 161.87481689 209.54315186 C161.87596035 204.88043999 161.85251096 200.21814321 161.82452106 195.55552745 C161.79944577 190.67486241 161.79716059 185.79418692 161.79241943 180.91346741 C161.78000764 171.6807331 161.74721038 162.44818919 161.70702147 153.21553856 C161.6622478 142.70044196 161.64030266 132.18533607 161.62023973 121.6701678 C161.57847609 100.04853682 161.5051462 78.4271667 161.41894531 56.80566406 C147.22894531 56.47566406 133.03894531 56.14566406 118.41894531 55.80566406 C118.08894531 39.96566406 117.75894531 24.12566406 117.41894531 7.80566406 C101.38951589 7.76046569 85.3601411 7.72364493 69.33066559 7.70203972 C61.88741266 7.6917401 54.44420222 7.67770497 47.00097656 7.65478516 C40.51123065 7.63481096 34.02151551 7.62193808 27.53173971 7.61748707 C24.09748109 7.6148865 20.66331052 7.60880159 17.2290802 7.59420395 C13.38932084 7.57967001 9.54974342 7.57768695 5.70996094 7.57861328 C4.57923157 7.57142273 3.4485022 7.56423218 2.2835083 7.55682373 C-6.63392899 7.58007683 -14.9879626 8.1804888 -21.58105469 14.80566406 Z M124.41894531 14.80566406 C124.41894531 26.35566406 124.41894531 37.90566406 124.41894531 49.80566406 C134.97894531 49.80566406 145.53894531 49.80566406 156.41894531 49.80566406 C151.71290999 43.39097087 151.71290999 43.39097087 146.48144531 37.80566406 C143.26596208 34.67527868 140.28575426 31.4333175 137.35644531 28.03613281 C134.94933275 25.26504154 132.50317774 22.53041661 130.04394531 19.80566406 C129.19058594 18.85691406 128.33722656 17.90816406 127.45800781 16.93066406 C126.78511719 16.22941406 126.11222656 15.52816406 125.41894531 14.80566406 C125.08894531 14.80566406 124.75894531 14.80566406 124.41894531 14.80566406 Z " fill="#000000" transform="translate(60.5810546875,-0.8056640625)"/>
<path d="M0 0 C5.86538816 4.95493985 10.07404137 10.01598576 13.3671875 16.9609375 C13.70621094 17.67121094 14.04523438 18.38148437 14.39453125 19.11328125 C18.15963449 28.98583305 18.13803976 43.1257181 14.7421875 53.0859375 C14.00041874 54.73431252 13.20906345 56.36137319 12.3671875 57.9609375 C11.9546875 58.8065625 11.5421875 59.6521875 11.1171875 60.5234375 C4.81921451 72.26056898 -5.54271161 79.36601343 -17.90234375 83.76953125 C-31.25076632 87.36047981 -44.94847602 84.88520725 -56.8828125 78.2734375 C-68.14075136 70.92019705 -75.11367358 60.73758402 -79.0703125 47.9609375 C-81.65851062 34.32200582 -78.93904633 20.8874481 -71.37109375 9.30078125 C-64.00785775 -0.6106308 -53.18259248 -8.44775866 -40.8046875 -10.828125 C-25.05882235 -12.35739967 -12.53542797 -9.70844718 0 0 Z M-63.5078125 12.2734375 C-70.24951133 21.55917363 -72.57307061 31.6509757 -71.6328125 42.9609375 C-69.07923808 55.17502239 -62.90108117 64.3043122 -52.5859375 71.265625 C-42.9120511 76.81915238 -33.19674425 78.52467717 -22.26953125 76.265625 C-15.32217535 74.35850769 -9.86280041 71.93498983 -4.6328125 66.9609375 C-3.94445312 66.31253906 -3.25609375 65.66414063 -2.546875 64.99609375 C5.35985037 56.86892064 8.8246945 48.21342174 8.9921875 36.9609375 C8.80319861 25.0842827 4.93132743 16.60862185 -3.390625 8.08203125 C-4.13054687 7.38207031 -4.87046875 6.68210937 -5.6328125 5.9609375 C-6.18710938 5.43628906 -6.74140625 4.91164063 -7.3125 4.37109375 C-14.71654558 -1.68843609 -25.308001 -3.79994084 -34.66015625 -3.41796875 C-46.19774996 -1.94734248 -56.06305029 3.32707782 -63.5078125 12.2734375 Z " fill="#000000" transform="translate(128.6328125,31.0390625)"/>
<path d="M0 0 C1.11052734 -0.00426498 2.22105469 -0.00852997 3.36523438 -0.01292419 C5.20118164 -0.01224442 5.20118164 -0.01224442 7.07421875 -0.0115509 C9.00104492 -0.01658882 9.00104492 -0.01658882 10.96679688 -0.02172852 C14.49563055 -0.03057773 18.02443999 -0.03290698 21.55328369 -0.0335443 C24.4958268 -0.03449255 27.43836423 -0.03816979 30.38090515 -0.0417164 C37.32034593 -0.04986407 44.25977374 -0.05230031 51.19921875 -0.05158997 C58.36674587 -0.05098873 65.53419784 -0.0615489 72.70170593 -0.07733363 C78.84865169 -0.09039031 84.99557282 -0.09577467 91.14253235 -0.09513456 C94.81689087 -0.09487906 98.49118259 -0.09775852 102.16552734 -0.10831261 C106.26014382 -0.11975257 110.3545908 -0.11525831 114.44921875 -0.10920715 C115.67318359 -0.11482666 116.89714844 -0.12044617 118.15820312 -0.12623596 C119.26873047 -0.12204147 120.37925781 -0.11784698 121.5234375 -0.11352539 C122.97689575 -0.11434254 122.97689575 -0.11434254 124.4597168 -0.1151762 C126.76171875 0.13371277 126.76171875 0.13371277 128.76171875 2.13371277 C128.20616319 6.68926832 128.20616319 6.68926832 126.76171875 8.13371277 C125.05802371 8.23210627 123.35022582 8.26003303 121.64369202 8.26069641 C119.979963 8.26492615 119.979963 8.26492615 118.28262329 8.26924133 C116.44128311 8.26620499 116.44128311 8.26620499 114.56274414 8.2631073 C113.27833939 8.26485962 111.99393463 8.26661194 110.67060852 8.26841736 C107.13757875 8.27299159 103.60457805 8.27120206 100.07154775 8.26803827 C96.38090385 8.26551408 92.69026252 8.26785243 88.99961853 8.26942444 C82.79962719 8.27124619 76.59964774 8.26883993 70.3996582 8.26408386 C63.22478915 8.25864363 56.04994853 8.26040214 48.87508017 8.26591027 C42.72390946 8.2704441 36.57274732 8.27109054 30.42157549 8.2684716 C26.74387072 8.26691001 23.06617933 8.26671179 19.38847542 8.27000809 C15.28899571 8.2734254 11.18956521 8.26869262 7.09008789 8.2631073 C5.25178406 8.26614365 5.25178406 8.26614365 3.37634277 8.26924133 C1.70838402 8.2650116 1.70838402 8.2650116 0.00672913 8.26069641 C-1.44867735 8.26013087 -1.44867735 8.26013087 -2.93348598 8.25955391 C-5.23828125 8.13371277 -5.23828125 8.13371277 -7.23828125 7.13371277 C-7.23828125 5.15371277 -7.23828125 3.17371277 -7.23828125 1.13371277 C-4.67776937 -0.14654317 -2.86780496 0.00495989 0 0 Z " fill="#000000" transform="translate(66.23828125,216.8662872314453)"/>
<path d="M0 0 C1.11052734 -0.00426498 2.22105469 -0.00852997 3.36523438 -0.01292419 C5.20118164 -0.01224442 5.20118164 -0.01224442 7.07421875 -0.0115509 C9.00104492 -0.01658882 9.00104492 -0.01658882 10.96679688 -0.02172852 C14.49563055 -0.03057773 18.02443999 -0.03290698 21.55328369 -0.0335443 C24.4958268 -0.03449255 27.43836423 -0.03816979 30.38090515 -0.0417164 C37.32034593 -0.04986407 44.25977374 -0.05230031 51.19921875 -0.05158997 C58.36674587 -0.05098873 65.53419784 -0.0615489 72.70170593 -0.07733363 C78.84865169 -0.09039031 84.99557282 -0.09577467 91.14253235 -0.09513456 C94.81689087 -0.09487906 98.49118259 -0.09775852 102.16552734 -0.10831261 C106.26014382 -0.11975257 110.3545908 -0.11525831 114.44921875 -0.10920715 C115.67318359 -0.11482666 116.89714844 -0.12044617 118.15820312 -0.12623596 C119.26873047 -0.12204147 120.37925781 -0.11784698 121.5234375 -0.11352539 C122.97689575 -0.11434254 122.97689575 -0.11434254 124.4597168 -0.1151762 C126.76171875 0.13371277 126.76171875 0.13371277 128.76171875 2.13371277 C128.20616319 6.68926832 128.20616319 6.68926832 126.76171875 8.13371277 C125.05802371 8.23210627 123.35022582 8.26003303 121.64369202 8.26069641 C119.979963 8.26492615 119.979963 8.26492615 118.28262329 8.26924133 C116.44128311 8.26620499 116.44128311 8.26620499 114.56274414 8.2631073 C113.27833939 8.26485962 111.99393463 8.26661194 110.67060852 8.26841736 C107.13757875 8.27299159 103.60457805 8.27120206 100.07154775 8.26803827 C96.38090385 8.26551408 92.69026252 8.26785243 88.99961853 8.26942444 C82.79962719 8.27124619 76.59964774 8.26883993 70.3996582 8.26408386 C63.22478915 8.25864363 56.04994853 8.26040214 48.87508017 8.26591027 C42.72390946 8.2704441 36.57274732 8.27109054 30.42157549 8.2684716 C26.74387072 8.26691001 23.06617933 8.26671179 19.38847542 8.27000809 C15.28899571 8.2734254 11.18956521 8.26869262 7.09008789 8.2631073 C5.25178406 8.26614365 5.25178406 8.26614365 3.37634277 8.26924133 C1.70838402 8.2650116 1.70838402 8.2650116 0.00672913 8.26069641 C-1.44867735 8.26013087 -1.44867735 8.26013087 -2.93348598 8.25955391 C-5.23828125 8.13371277 -5.23828125 8.13371277 -7.23828125 7.13371277 C-7.23828125 5.15371277 -7.23828125 3.17371277 -7.23828125 1.13371277 C-4.67776937 -0.14654317 -2.86780496 0.00495989 0 0 Z " fill="#000000" transform="translate(66.23828125,186.8662872314453)"/>
<path d="M0 0 C1.11052734 -0.00426498 2.22105469 -0.00852997 3.36523438 -0.01292419 C5.20118164 -0.01224442 5.20118164 -0.01224442 7.07421875 -0.0115509 C9.00104492 -0.01658882 9.00104492 -0.01658882 10.96679688 -0.02172852 C14.49563055 -0.03057773 18.02443999 -0.03290698 21.55328369 -0.0335443 C24.4958268 -0.03449255 27.43836423 -0.03816979 30.38090515 -0.0417164 C37.32034593 -0.04986407 44.25977374 -0.05230031 51.19921875 -0.05158997 C58.36674587 -0.05098873 65.53419784 -0.0615489 72.70170593 -0.07733363 C78.84865169 -0.09039031 84.99557282 -0.09577467 91.14253235 -0.09513456 C94.81689087 -0.09487906 98.49118259 -0.09775852 102.16552734 -0.10831261 C106.26014382 -0.11975257 110.3545908 -0.11525831 114.44921875 -0.10920715 C115.67318359 -0.11482666 116.89714844 -0.12044617 118.15820312 -0.12623596 C119.26873047 -0.12204147 120.37925781 -0.11784698 121.5234375 -0.11352539 C122.97689575 -0.11434254 122.97689575 -0.11434254 124.4597168 -0.1151762 C126.76171875 0.13371277 126.76171875 0.13371277 128.76171875 2.13371277 C128.20616319 6.68926832 128.20616319 6.68926832 126.76171875 8.13371277 C125.05802371 8.23210627 123.35022582 8.26003303 121.64369202 8.26069641 C119.979963 8.26492615 119.979963 8.26492615 118.28262329 8.26924133 C116.44128311 8.26620499 116.44128311 8.26620499 114.56274414 8.2631073 C113.27833939 8.26485962 111.99393463 8.26661194 110.67060852 8.26841736 C107.13757875 8.27299159 103.60457805 8.27120206 100.07154775 8.26803827 C96.38090385 8.26551408 92.69026252 8.26785243 88.99961853 8.26942444 C82.79962719 8.27124619 76.59964774 8.26883993 70.3996582 8.26408386 C63.22478915 8.25864363 56.04994853 8.26040214 48.87508017 8.26591027 C42.72390946 8.2704441 36.57274732 8.27109054 30.42157549 8.2684716 C26.74387072 8.26691001 23.06617933 8.26671179 19.38847542 8.27000809 C15.28899571 8.2734254 11.18956521 8.26869262 7.09008789 8.2631073 C5.25178406 8.26614365 5.25178406 8.26614365 3.37634277 8.26924133 C1.70838402 8.2650116 1.70838402 8.2650116 0.00672913 8.26069641 C-1.44867735 8.26013087 -1.44867735 8.26013087 -2.93348598 8.25955391 C-5.23828125 8.13371277 -5.23828125 8.13371277 -7.23828125 7.13371277 C-7.23828125 5.15371277 -7.23828125 3.17371277 -7.23828125 1.13371277 C-4.67776937 -0.14654317 -2.86780496 0.00495989 0 0 Z " fill="#000000" transform="translate(66.23828125,156.8662872314453)"/>
<path d="M0 0 C1.11052734 -0.00426498 2.22105469 -0.00852997 3.36523438 -0.01292419 C5.20118164 -0.01224442 5.20118164 -0.01224442 7.07421875 -0.0115509 C9.00104492 -0.01658882 9.00104492 -0.01658882 10.96679688 -0.02172852 C14.49563055 -0.03057773 18.02443999 -0.03290698 21.55328369 -0.0335443 C24.4958268 -0.03449255 27.43836423 -0.03816979 30.38090515 -0.0417164 C37.32034593 -0.04986407 44.25977374 -0.05230031 51.19921875 -0.05158997 C58.36674587 -0.05098873 65.53419784 -0.0615489 72.70170593 -0.07733363 C78.84865169 -0.09039031 84.99557282 -0.09577467 91.14253235 -0.09513456 C94.81689087 -0.09487906 98.49118259 -0.09775852 102.16552734 -0.10831261 C106.26014382 -0.11975257 110.3545908 -0.11525831 114.44921875 -0.10920715 C115.67318359 -0.11482666 116.89714844 -0.12044617 118.15820312 -0.12623596 C119.26873047 -0.12204147 120.37925781 -0.11784698 121.5234375 -0.11352539 C122.97689575 -0.11434254 122.97689575 -0.11434254 124.4597168 -0.1151762 C126.76171875 0.13371277 126.76171875 0.13371277 128.76171875 2.13371277 C128.20616319 6.68926832 128.20616319 6.68926832 126.76171875 8.13371277 C125.05802371 8.23210627 123.35022582 8.26003303 121.64369202 8.26069641 C119.979963 8.26492615 119.979963 8.26492615 118.28262329 8.26924133 C116.44128311 8.26620499 116.44128311 8.26620499 114.56274414 8.2631073 C113.27833939 8.26485962 111.99393463 8.26661194 110.67060852 8.26841736 C107.13757875 8.27299159 103.60457805 8.27120206 100.07154775 8.26803827 C96.38090385 8.26551408 92.69026252 8.26785243 88.99961853 8.26942444 C82.79962719 8.27124619 76.59964774 8.26883993 70.3996582 8.26408386 C63.22478915 8.25864363 56.04994853 8.26040214 48.87508017 8.26591027 C42.72390946 8.2704441 36.57274732 8.27109054 30.42157549 8.2684716 C26.74387072 8.26691001 23.06617933 8.26671179 19.38847542 8.27000809 C15.28899571 8.2734254 11.18956521 8.26869262 7.09008789 8.2631073 C5.25178406 8.26614365 5.25178406 8.26614365 3.37634277 8.26924133 C1.70838402 8.2650116 1.70838402 8.2650116 0.00672913 8.26069641 C-1.44867735 8.26013087 -1.44867735 8.26013087 -2.93348598 8.25955391 C-5.23828125 8.13371277 -5.23828125 8.13371277 -7.23828125 7.13371277 C-7.23828125 5.15371277 -7.23828125 3.17371277 -7.23828125 1.13371277 C-4.67776937 -0.14654317 -2.86780496 0.00495989 0 0 Z " fill="#000000" transform="translate(66.23828125,126.86628723144531)"/>
<path d="M0 0 C1.2065625 0.0309375 1.2065625 0.0309375 2.4375 0.0625 C6.3729798 7.44733115 9.55372927 15.05982819 12.5144043 22.87744141 C13.2557639 24.82766251 14.0132636 26.77112566 14.77148438 28.71484375 C15.25098987 29.97097675 15.72954041 31.22747479 16.20703125 32.484375 C16.63604736 33.60424805 17.06506348 34.72412109 17.50708008 35.87792969 C18.45708454 39.12953245 18.69391858 41.69526211 18.4375 45.0625 C17.4375 46.0625 17.4375 46.0625 14.875 46.125 C14.070625 46.104375 13.26625 46.08375 12.4375 46.0625 C6.88169134 35.68892369 6.88169134 35.68892369 6.4375 30.0625 C2.4775 30.3925 -1.4825 30.7225 -5.5625 31.0625 C-5.90023437 31.97773437 -6.23796875 32.89296875 -6.5859375 33.8359375 C-7.03195313 35.02445313 -7.47796875 36.21296875 -7.9375 37.4375 C-8.37835938 38.62085938 -8.81921875 39.80421875 -9.2734375 41.0234375 C-10.5625 44.0625 -10.5625 44.0625 -12.5625 46.0625 C-15.125 46.25 -15.125 46.25 -17.5625 46.0625 C-17.8925 45.7325 -18.2225 45.4025 -18.5625 45.0625 C-18.52258895 38.78084743 -16.82474103 33.29949595 -14.4375 27.5625 C-13.97706299 26.41986694 -13.97706299 26.41986694 -13.50732422 25.25415039 C-12.53620407 22.85251645 -11.54935674 20.45770367 -10.5625 18.0625 C-9.90006307 16.42617708 -9.23859581 14.78946125 -8.578125 13.15234375 C-7.94877793 11.60121278 -7.31859989 10.05041864 -6.6875 8.5 C-6.38956543 7.7678125 -6.09163086 7.035625 -5.78466797 6.28125 C-3.22656114 0.07869661 -3.22656114 0.07869661 0 0 Z M-0.5625 16.0625 C-1.2225 18.0425 -1.8825 20.0225 -2.5625 22.0625 C-0.9125 22.0625 0.7375 22.0625 2.4375 22.0625 C1.7775 20.0825 1.1175 18.1025 0.4375 16.0625 C0.1075 16.0625 -0.2225 16.0625 -0.5625 16.0625 Z " fill="#000000" transform="translate(86.5625,44.9375)"/>
<path d="M0 0 C0 2.97 0 5.94 0 9 C2.1965625 8.9690625 2.1965625 8.9690625 4.4375 8.9375 C5.95832518 8.91607993 7.48071962 8.92820036 9 9 C10 10 10 10 10.125 12.5 C10 15 10 15 9 16 C7.48071962 16.07179964 5.95832518 16.08392007 4.4375 16.0625 C3.61121094 16.05347656 2.78492187 16.04445313 1.93359375 16.03515625 C0.97646484 16.01775391 0.97646484 16.01775391 0 16 C0.020625 17.299375 0.04125 18.59875 0.0625 19.9375 C0.08399454 21.29165633 0.07148199 22.64756083 0 24 C-1 25 -1 25 -3.5 25.125 C-6 25 -6 25 -7 24 C-7.14115161 21.32941149 -7.04247107 18.67567762 -7 16 C-7.63808594 16.01160156 -8.27617188 16.02320312 -8.93359375 16.03515625 C-10.17302734 16.04869141 -10.17302734 16.04869141 -11.4375 16.0625 C-12.67306641 16.07990234 -12.67306641 16.07990234 -13.93359375 16.09765625 C-16 16 -16 16 -17 15 C-17.125 12.5 -17.125 12.5 -17 10 C-16 9 -16 9 -13.93359375 8.90234375 C-10.46679688 8.95117188 -10.46679688 8.95117188 -7 9 C-7 6.03 -7 3.06 -7 0 C-4.3333581 -1.33332095 -2.83319697 -0.67102033 0 0 Z " fill="#000000" transform="translate(121,47)"/>
</svg>
